<?xml version="1.0" encoding="utf-8"?>
<!-- Generator: Adobe Illustrator 16.0.4, SVG Export Plug-In . SVG Version: 6.00 Build 0)  -->
<!DOCTYPE svg PUBLIC "-//W3C//DTD SVG 1.1//EN" "http://www.w3.org/Graphics/SVG/1.1/DTD/svg11.dtd">
<svg version="1.1" id="Layer_1" xmlns="http://www.w3.org/2000/svg" xmlns:xlink="http://www.w3.org/1999/xlink" x="0px" y="0px"
	 width="353.448px" height="100px" viewBox="0 0 353.448 100" enable-background="new 0 0 353.448 100" xml:space="preserve">
<g>
	<defs>
		<rect id="SVGID_1_" width="353.448" height="100"/>
	</defs>
	<clipPath id="SVGID_2_">
		<use xlink:href="#SVGID_1_"  overflow="visible"/>
	</clipPath>
</g>
<g>
	<defs>
		<rect id="SVGID_3_" width="353.448" height="100"/>
	</defs>
	<clipPath id="SVGID_4_">
		<use xlink:href="#SVGID_3_"  overflow="visible"/>
	</clipPath>
</g>
<g>
	<defs>
		<rect id="SVGID_5_" width="353.448" height="100"/>
	</defs>
	<clipPath id="SVGID_6_">
		<use xlink:href="#SVGID_5_"  overflow="visible"/>
	</clipPath>
	<path clip-path="url(#SVGID_6_)" fill="#D0C3AE" d="M214.062,85.64C204.26,98.961,188.866,100,184.38,100h-0.004
		c-0.491,0-0.947-0.01-1.369-0.029c-0.315,0.02-0.771,0.029-1.267,0.029c-5.748,0-20.147-1.403-29.686-14.36
		c-11.331-15.397-11.472-41.206-0.413-76.712c0.005-0.316-0.233-0.49-0.388-0.607c-0.272-0.194-0.583-0.417-0.865-0.733
		c-1.087-1.228-1.335-3.335-0.582-5.015c1.058-2.354,3.733-3.209,7.126-2.078l11.797,3.321c1.612,0.417,2.597,2.092,2.175,3.723
		c-0.417,1.622-0.621,2.554-0.767,3.229c-0.102,0.461-0.18,0.81-0.277,1.179c-7.908,29.507-8.248,49.255-1,58.702
		c4.214,5.491,10.123,6.127,14.201,6.127c5.088-0.209,10.907-0.897,14.951-6.402c6.764-9.2,6.17-28.856-1.757-58.426
		c-0.097-0.369-0.175-0.718-0.276-1.179c-0.146-0.675-0.35-1.607-0.768-3.229c-0.413-1.636,0.573-3.31,2.199-3.733l11.831-3.325
		c3.188-1.083,6.005-0.262,7.067,2.092c0.738,1.651,0.49,3.801-0.577,5.015c-0.286,0.316-0.593,0.539-0.864,0.733
		c-0.16,0.117-0.398,0.291-0.446,0.369C225.533,44.434,225.393,70.246,214.062,85.64 M154.232,52.65c2.15,0,3.892-1.741,3.892-3.892
		c0-2.149-1.742-3.892-3.892-3.892c-2.149,0-3.892,1.743-3.892,3.892C150.34,50.909,152.083,52.65,154.232,52.65 M161.001,71.592
		c0-2.149-1.742-3.893-3.892-3.893c-2.149,0-3.892,1.743-3.892,3.893c0,2.15,1.743,3.892,3.892,3.892
		C159.259,75.483,161.001,73.742,161.001,71.592 M161.001,26.041c0-2.15-1.742-3.892-3.892-3.892c-2.149,0-3.892,1.742-3.892,3.892
		c0,2.149,1.743,3.892,3.892,3.892C159.259,29.933,161.001,28.19,161.001,26.041 M205.163,26.041c0,2.149,1.742,3.892,3.892,3.892
		c2.15,0,3.893-1.743,3.893-3.892c0-2.15-1.742-3.892-3.893-3.892C206.905,22.149,205.163,23.891,205.163,26.041 M212.947,71.592
		c0-2.149-1.742-3.893-3.893-3.893c-2.149,0-3.892,1.743-3.892,3.893c0,2.15,1.742,3.892,3.892,3.892
		C211.205,75.483,212.947,73.742,212.947,71.592 M215.824,48.759c0-2.149-1.742-3.892-3.893-3.892c-2.149,0-3.892,1.743-3.892,3.892
		c0,2.15,1.742,3.892,3.892,3.892C214.082,52.65,215.824,50.909,215.824,48.759"/>
	<path clip-path="url(#SVGID_6_)" fill="#D0C3AE" d="M131.666,16.814c-1.932-1.992-4.52-1.275-9.856,3.046
		c-2.36,1.951-4.391,3.853-6.044,5.645c-1.722,1.842-3.594,4.251-5.555,7.158c-1.424,2.101-2.837,4.241-4.261,6.392
		c-0.757-0.249-1.434-0.379-2.081-0.379c-3.434,0-6.77,1.763-9.906,5.227c-0.85,0.934-1.562,1.872-2.183,2.813
		c-1.016,0.412-2.012,0.8-2.854,1.01c1.204-2.678,1.792-4.798,1.792-6.441c0-1.314-0.399-2.509-1.155-3.534
		c-0.836-1.155-2.021-1.773-3.415-1.773c-2.379,0-4.59,1.414-6.581,4.212c-2.16-0.379-4.689,1.453-7.367,5.515
		c-0.025,0.039-0.031,0.064-0.055,0.102c-1.827,0.87-3.514,1.577-4.883,1.919c1.195-2.668,1.782-4.789,1.782-6.441
		c0-1.314-0.398-2.509-1.155-3.534c-0.836-1.155-2.021-1.773-3.405-1.773c-2.379,0-4.599,1.414-6.591,4.212
		c-1.889-0.32-4.035,1.118-6.315,4.118c-1.466,0.565-3.21,1.294-5.343,2.253l-5.097,2.32l17.751-27.846
		c1.732-2.24,3.106-3.903,4.102-4.948l0.348-0.369v-0.507c0-1.026-0.687-2.23-2.608-2.23c-1.165,0-2.25,0.428-3.246,1.274
		c-2.11,1.842-4.5,4.779-7.317,8.95c-2.848,4.231-5.098,7.178-6.651,8.751c-4.759,4.749-9.627,9.03-14.455,12.704
		c-8.652,6.62-13.192,8.014-15.482,8.014c-0.876,0-1.483-0.308-1.961-0.994c-0.587-0.838-0.876-1.744-0.876-2.789
		c0-5.635,3.027-11.778,8.98-18.239c5.426-5.914,12.236-11.051,20.23-15.272c7.925-4.172,14.775-6.292,20.35-6.292
		c3.922,0,3.922,1.314,3.922,1.802c0,0.527-0.03,0.936-0.059,1.234l0.089,0.667l0.777,1.225l0.946-0.319
		c2.22-0.746,3.444-2.339,3.444-4.49c0-1.513-0.736-3.574-4.241-4.798c-1.712-0.578-3.684-0.876-5.834-0.876
		c-6.83,0-14.575,2.369-23.028,7.038c-7.397,4.112-13.908,9.04-19.344,14.665c-3.046,3.166-5.704,6.78-7.865,10.722
		c-2.738,4.799-4.131,9.1-4.131,12.794c0,2.507,0.607,4.749,1.821,6.7c1.524,2.33,3.624,3.514,6.263,3.514
		c4.072,0,9.239-2.358,15.76-7.208c1.364-0.994,3.853-3.016,7.536-6.151c-0.836,1.374-1.414,2.279-1.722,2.718
		c-2.469,3.633-4.839,6.112-7.049,7.377c-8.532,4.938-14.267,8.354-17.044,10.146c-3.724,2.408-6.013,4.062-7.019,5.066
		C1.184,73.243,0,76.061,0,79.286c0,2.15,0.756,3.863,2.27,5.107c1.423,1.145,3.185,1.732,5.226,1.732
		c6.004,0,11.688-4.042,16.885-12.007l8.214-12.514c2.25-3.476,2.827-4.043,2.907-4.112c0.767-0.646,3.126-2.061,10.006-5.088
		c0.854-0.37,1.563-0.699,2.314-1.04c-0.213,0.742-0.503,1.531-0.503,2.145c0,1.583,0.578,3.088,1.693,4.481
		c1.195,1.523,2.628,2.289,4.271,2.289c3.116,0,6.511-2.309,10.374-7.068c2.13-0.124,3.893-0.662,5.675-1.177
		c-0.101,0.482-0.349,1.054-0.349,1.475c0,1.574,0.578,3.088,1.703,4.481c1.194,1.523,2.628,2.289,4.261,2.289
		c3.116,0,6.511-2.309,10.384-7.068c1.558-0.09,2.778-0.561,4.15-0.861c-0.106,0.633-0.218,1.267-0.218,1.896
		c0,1.245,0.388,2.4,1.165,3.455c1.892,2.588,5.346,2.13,9.07-0.1c0.577-0.368,1.652-1.125,3.096-2.17
		c1.344,2.826,3.096,4.261,5.227,4.261c1.632,0,4.002-1.095,7.676-3.554c3.892-2.609,5.545-4.432,5.545-6.073
		c0-1.016-0.597-1.822-1.633-2.22l-0.697-0.259l-0.577,0.478c-2.609,2.21-4.172,3.523-4.679,3.912
		c-2.459,1.781-3.943,2.161-4.749,2.161c-0.458,0-1.484,0-1.703-2.539c23.008-23.048,25.676-29.56,25.676-32.446
		C132.68,18.267,132.322,17.451,131.666,16.814 M94.739,54.028c0.226-1.451,1.093-3.173,2.3-5.027
		c0.564-0.441,1.316-0.684,1.812-1.195l0.507-0.528l-0.262-0.944c1.682-1.893,3.286-3.118,4.633-3.118l0.05,0.1l-2.131,6.401
		c-0.378,0.389-1.274,1.165-3.425,2.559C96.083,53.61,95.107,53.988,94.739,54.028 M110.788,40.767
		c1.592-2.857,3.703-5.953,6.311-9.239c3.256-4.062,6.233-7.039,8.901-8.9c-1.613,2.538-4.162,5.824-7.646,9.836
		C115.636,35.62,113.107,38.398,110.788,40.767 M76.171,48.483c0.005-0.008,0.008-0.009,0.013-0.016
		c0.295-0.261,0.729-0.379,1.003-0.661l0.508-0.528l-0.15-0.541c0.178-0.203,0.405-0.566,0.568-0.723
		c0.139,2.26,0.806,4.042,2.001,5.306c-2.728,3.126-4.212,3.624-4.879,3.624c-0.179,0-0.418-0.05-0.726-0.408
		c-0.289-0.329-0.418-0.657-0.418-1.026C74.091,52.307,74.787,50.613,76.171,48.483 M82.732,46.123c0-1.075,0.309-2.28,0.916-3.564
		c0.378-0.806,0.976-1.762,1.633-1.762l0.229,0.02c0,0,0.099,0.139,0.099,0.607c0,0.936-0.448,2.708-2.479,5.964
		C82.872,46.94,82.732,46.512,82.732,46.123 M55.585,47.099c0.038-0.034,0.111-0.077,0.147-0.11c0.326-0.204,0.53-0.489,0.75-0.762
		c0.17,2.156,0.815,3.874,1.958,5.093c-2.718,3.126-4.201,3.624-4.868,3.624c-0.189,0-0.428-0.05-0.737-0.408
		c-0.279-0.329-0.408-0.646-0.408-1.026c0-0.836,0.358-2.379,2.061-5.017C54.908,47.849,55.226,47.537,55.585,47.099 M63.607,40.797
		l0.229,0.02c0,0,0.1,0.139,0.1,0.607c0,0.926-0.448,2.708-2.469,5.974c-0.269-0.458-0.399-0.886-0.399-1.275
		c0-1.085,0.309-2.29,0.906-3.564C62.354,41.753,62.95,40.797,63.607,40.797 M25.138,63.526l-1.991,2.896
		c-2.867,4.262-5.197,7.388-6.919,9.279c-3.146,3.375-6.083,5.087-8.732,5.087c-1.453,0-1.941-0.507-1.941-2.011v-0.946
		c0-1.583,0.777-2.985,2.389-4.29c0.309-0.229,3.067-1.972,5.237-3.336C18.169,67.35,22.083,65.169,25.138,63.526"/>
	<path clip-path="url(#SVGID_6_)" fill="#D0C3AE" d="M351.446,52.276l-0.557-0.249l-0.538,0.278
		c-0.518,0.26-1.613,0.956-5.575,4.093c-1.902,1.522-3.654,2.29-5.207,2.29c-0.259,0-1.165-0.171-3.196-2.012
		c2.25-0.867,4.471-2.011,6.621-3.415c3.922-2.619,5.834-5.167,5.834-7.796c0-0.736-0.259-1.792-1.473-2.688
		c-0.867-0.617-1.753-0.935-2.649-0.935c-2.29,0-5.684,1.622-10.672,5.107c0.298-0.309,0.617-0.637,0.946-0.956l7.576-7.586
		c2.718-2.718,4.23-4.221,4.55-4.55c4.33-4.779,6.341-8.094,6.341-10.434c0-0.926-0.308-1.782-0.906-2.528
		c-0.656-0.807-1.513-1.235-2.487-1.235c-2.689,0-5.825,1.922-9.568,5.874c-2.618,2.718-4.928,5.695-6.83,8.851l-7.168,11.429
		c-3.854,6.228-5.274,8.875-5.821,10.113c-0.629,0.433-1.289,0.89-1.646,1.098c-3.484,2.021-6.879,2.856-9.348,1.434
		c-0.927-0.468-1.056-0.946-1.056-1.354c0-0.159,0.14-0.362,0.158-0.526c0.303-0.315,0.578-0.543,0.887-0.878l0.667-0.728
		l-0.671-1.046c0.596-1.04,1.411-2.147,2.533-3.344c2.26-2.4,4.271-3.664,6.003-3.724c-0.09,0.209-0.249,0.448-0.528,0.717
		c-0.965,0.936-1.413,1.752-1.413,2.559v0.647l2.589,1.9l0.757-0.557c2.777-2.041,4.181-4.112,4.181-6.153
		c0-1.175-0.488-3.922-5.008-3.922c-3.444,0-6.929,1.622-10.373,4.818c-2.991,2.751-4.632,5.646-5.061,8.62l-1.321,1.007
		c-1.991,1.354-3.773,2.041-5.287,2.041c-0.049,0-0.099,0-0.149-0.029c0.26-1.612,1.165-3.704,2.698-6.232
		c0.627-1.025,2.24-3.436,4.42-6.601l0.787-1.135l-3.883-2.25l-0.688,0.587c-0.397,0.348-2.917,3.415-7.477,9.1
		c-3.623,4.391-5.396,5.715-6.152,6.103c0.061-1.762,1.414-5.286,7.308-12.086l0.985-1.145l-3.504-2.12l-0.658,0.408
		c-2.25,1.384-4.319,3.683-6.341,7.009c-0.471,0.771-0.69,1.429-1.051,2.148c-2.044,1.925-3.625,3.339-4.445,3.904
		c-2.349,1.623-4.6,2.409-6.898,2.409c-2.569,0-5.755-1.085-9.498-3.217c2.967-3.594,6.491-8.223,10.742-14.077
		c5.088-6.939,8.86-12.007,10.99-14.755c0.418,0.03,0.857,0.04,1.315,0.04c4.957,0,9.696-0.866,14.087-2.578
		c5.884-2.26,8.871-5.516,8.871-9.687c0-1.693-0.707-3.057-2.031-3.943c-1.185-0.806-2.589-1.224-4.151-1.224
		c-3.405,0-7.198,1.413-11.599,4.311c-3.235,2.09-6.283,4.629-9.07,7.546c-3.364-0.139-6.013-0.757-7.885-1.832
		c-1.961-1.135-3.833-3.295-5.555-6.431l-0.628-1.145l-1.125,0.657c-1.214,0.707-1.881,1.882-1.881,3.305
		c0,4.042,4.221,7.367,12.882,10.135l-17.621,24.353c-0.906,1.254-1.743,2.239-2.489,2.937c-4.529-2.449-8.989-3.694-13.261-3.694
		c-2.947,0-5.566,0.647-7.796,1.932c-2.857,1.651-4.301,4.012-4.301,7.039c0,2.697,1.384,4.897,4.022,6.381
		c1.972,1.085,4.33,1.633,6.989,1.633c4.599,0,9.607-2.18,15.311-6.66l5.944,2.897c2.847,1.184,5.376,1.782,7.527,1.782
		c3.385,0,6.64-1.146,9.677-3.405c0.093-0.069,0.161-0.166,0.254-0.235c0.184,0.445,0.411,0.881,0.731,1.28
		c0.996,1.274,2.16,1.543,2.957,1.543c1.731,0,3.822-1.185,6.461-3.703c0.945,3.604,3.534,4.221,5.177,4.221
		c2.238,0,4.789-1.215,7.633-3.421c0.471,0.697,0.972,1.38,1.746,1.938c1.652,1.184,3.604,1.782,5.784,1.782
		c1.695,0,4.018-0.763,6.69-1.916c0.237,1.12,0.988,1.916,2.249,1.916h0.618l0.378-0.488c4.521-5.715,5.935-5.884,6.014-5.895
		l0.249,0.091l2.011-0.08c0.428,0.299,1.384,1.104,3.415,3.314c3.475,3.734,8.063,3.634,12.116,0.598
		c1.403-1.265,2.856-2.528,4.36-3.822c1.981-1.693,2.718-2.679,2.718-3.645C352.711,53.401,352.253,52.635,351.446,52.276
		 M348.013,24.898l-0.09,0.219c-0.3,0.717-1.812,2.977-8.682,10.165c-0.209,0.219-0.478,0.488-0.787,0.806
		c2.628-4.012,5.466-7.337,8.572-10.065C347.404,25.545,347.743,25.157,348.013,24.898 M333.179,53.411
		c5.177-4.341,7.903-5.844,9.317-6.292c-0.498,0.617-1.583,1.673-3.972,3.295C335.657,52.376,334.055,53.132,333.179,53.411
		 M289.473,21.413l-0.279-0.01c4.649-4.53,9.05-6.819,13.102-6.819c0.458,0,0.807,0.049,1.035,0.119
		c-0.905,1.713-2.837,3.266-5.764,4.63C294.649,20.716,291.922,21.413,289.473,21.413 M243.705,54.347
		c2.301,0,5.296,0.906,8.92,2.698c-5.336,4.181-9.836,4.908-13.52,3.285c-1.821-0.806-2.031-1.692-2.031-2.279
		C237.074,57.035,237.074,54.347,243.705,54.347"/>
</g>
</svg>
